<?xml version="1.0" standalone="no"?>
<!DOCTYPE svg PUBLIC "-//W3C//DTD SVG 1.1//EN" "http://www.w3.org/Graphics/SVG/1.1/DTD/svg11.dtd" >
<svg xmlns="http://www.w3.org/2000/svg">
<metadata></metadata>
<defs>
<font id="porn_star_academyregular" horiz-adv-x="1039" >
<font-face units-per-em="2048" ascent="1638" descent="-410" />
<missing-glyph horiz-adv-x="600" />
<glyph horiz-adv-x="2048" />
<glyph horiz-adv-x="2048" />
<glyph unicode="&#xd;" horiz-adv-x="840" />
<glyph unicode=" "  horiz-adv-x="600" />
<glyph unicode="&#x09;" horiz-adv-x="600" />
<glyph unicode="&#xa0;" horiz-adv-x="600" />
<glyph unicode="!" horiz-adv-x="441" d="M161 0v280h280v-280h-280zM161 980v704h280v-704l-60 -420h-160z" />
<glyph unicode="&#x22;" horiz-adv-x="842" d="M161 1124l140 280h-140v280h280v-280l-140 -280h-140zM561 1124l140 280h-140v280h280v-280l-140 -280h-140z" />
<glyph unicode="#" horiz-adv-x="1281" d="M161 434v280h140v280h-140v280h140v410h280v-410h280v410h280v-410h140v-280h-140v-280h140v-280h-140v-434h-280v434h-280v-434h-280v434h-140zM581 714h280v280h-280v-280z" />
<glyph unicode="$" d="M161 224v196h280v-140h318v427h-374l-224 224v529l224 224h76v280h280v-280h74l224 -224v-196h-280v140h-318v-417h374l224 -224v-539l-224 -224h-74v-280h-280v280h-76z" />
<glyph unicode="%" horiz-adv-x="1445" d="M161 421v140h55v562h-55v140h195l206 -485v345h-55v140h250v-140h-55v-702h-140h-1l-205 485v-345h55v-140h-250zM793 533v618l112 112h215l112 -112v-618l-112 -112h-215zM933 561h159v562h-159v-562zM1305 421v140h140v-140h-140z" />
<glyph unicode="&#x26;" horiz-adv-x="1880" d="M161 420v141h46l162 702h144l162 -702h46v-141h-250v141h60l-19 81h-142l-19 -81h60v-141h-250zM402 782h78l-39 168zM758 421v140h55v562h-55v140h195l206 -485v345h-55v140h250v-140h-55v-702h-140h-1l-205 485v-345h55v-140h-250zM1387 421v140h55v562h-55v140h382 l112 -112v-618l-112 -112h-382zM1582 561h159v562h-159v-562z" />
<glyph unicode="'" horiz-adv-x="441" d="M161 1124l140 280h-140v280h280v-280l-140 -280h-140z" />
<glyph unicode="(" horiz-adv-x="752" d="M161 0v1684h590v-280h-310v-1124h310v-280h-590z" />
<glyph unicode=")" horiz-adv-x="752" d="M161 0v280h310v1124h-310v280h590v-1684h-590z" />
<glyph unicode="*" horiz-adv-x="1604" d="M161 1018l553 -1l170 526l169 -526l553 1l-448 -324l172 -526l-446 326l-447 -326l172 526z" />
<glyph unicode="+" horiz-adv-x="1040" d="M100 560v280h280v280h280v-280h280v-280h-280v-280h-280v280h-280z" />
<glyph unicode="," horiz-adv-x="441" d="M161 0v280h280v-280l-140 -280h-140l140 280h-140z" />
<glyph unicode="-" d="M161 702v280h878v-280h-878z" />
<glyph unicode="." horiz-adv-x="480" d="M100 0v280h280v-280h-280z" />
<glyph unicode="/" horiz-adv-x="1090" d="M52 0h313l848 1684h-312z" />
<glyph unicode="0" d="M161 224v1236l224 224h430l224 -224v-1236l-224 -224h-430zM441 280h318v1124h-318v-1124z" />
<glyph unicode="1" horiz-adv-x="659" d="M161 1264v212l140 208h280v-1404h78v-280h-437v280h79v984h-140z" />
<glyph unicode="2" d="M161 0v764l224 224h374v416h-318v-140h-280v196l224 224h430l224 -224v-528l-224 -224h-374v-428h318v282h280v-562h-878z" />
<glyph unicode="3" d="M161 224v196h280v-140h318v423h-337v280h337v421h-318v-140h-280v196l224 224h430l224 -224v-533l-84 -84l84 -84v-535l-224 -224h-430z" />
<glyph unicode="4" d="M161 416v297l488 971h280v-988h110v-280h-110v-136h110v-280h-499v280h109v136h-488zM463 696h186v368z" />
<glyph unicode="5" d="M161 224v338h280v-282h318v423h-374l-224 224v757h878v-280h-598v-421h374l224 -224v-535l-224 -224h-430z" />
<glyph unicode="6" horiz-adv-x="1139" d="M161 224v1236l224 224h430l224 -224v-283h-280v227h-318v-414h374l224 -224v-542l-224 -224h-430zM441 280h318v430h-318v-430z" />
<glyph unicode="7" horiz-adv-x="1084" d="M121 0v280h85l567 1124h-332v-232h-280v512h923v-282l-564 -1122h100v-280h-499z" />
<glyph unicode="8" d="M161 224v535l84 84l-84 84v533l224 224h430l224 -224v-533l-84 -84l84 -84v-535l-224 -224h-430zM441 280h318v423h-318v-423zM441 983h318v421h-318v-421z" />
<glyph unicode="9" horiz-adv-x="1139" d="M161 224v283h280v-227h318v414h-374l-224 224v542l224 224h430l224 -224v-1236l-224 -224h-430zM441 974h318v430h-318v-430z" />
<glyph unicode=":" horiz-adv-x="480" d="M100 0v280h280v-280h-280zM100 840v280h280v-280h-280z" />
<glyph unicode=";" horiz-adv-x="480" d="M100 0v280h280v-280l-140 -280h-140l140 280h-140zM100 840v280h280v-280h-280z" />
<glyph unicode="&#x3c;" horiz-adv-x="2567" d="M161 290v1104q0 120 85 205t205 85h1828q120 0 205 -85t85 -205v-1104q0 -120 -85 -205t-205 -85h-1828q-120 0 -205 85t-85 205zM745 358h286v161h-44l73 146l74 -146h-44v-161h286v161h-63l-163 324l162 322h64v161h-286v-161h42l-72 -143l-72 143h43v161h-286v-161h64 l162 -322l-164 -324h-62v-161zM1459 358h546v345h-161v-184h-161v646h63v161h-287v-161h63v-646h-63v-161z" />
<glyph unicode="=" horiz-adv-x="1040" d="M100 280v280h840v-280h-840zM100 840v280h840v-280h-840z" />
<glyph unicode="&#x3e;" horiz-adv-x="2567" d="M161 290v1104q0 120 85 205t205 85h1828q120 0 205 -85t85 -205v-1104q0 -120 -85 -205t-205 -85h-1828q-120 0 -205 85t-85 205zM745 358h286v161h-44l73 146l74 -146h-44v-161h286v161h-63l-163 324l162 322h64v161h-286v-161h42l-72 -143l-72 143h43v161h-286v-161h64 l162 -322l-164 -324h-62v-161zM1418 487l129 -128h246l129 128v308l-131 129h-212v241h182v-127h161v159l-129 128h-246l-129 -128v-306l129 -128h214v-244h-182v127h-161v-159z" />
<glyph unicode="?" d="M161 1177v283l224 224h430l224 -224v-542l-224 -224h-94v-274h-280v330l224 224h94v430h-318v-227h-280zM441 0v280h280v-280h-280z" />
<glyph unicode="@" horiz-adv-x="1125" d="M162 420v141h46l162 702h144l162 -702h45v-141h-249v141h60l-19 81h-142l-19 -81h59v-141h-249zM403 782h78l-39 168zM636 1013v250h490v-250h-140v110h-35v-562h40v-140h-219v140h39v562h-35v-110h-140z" />
<glyph unicode="A" horiz-adv-x="1141" d="M52 -1v281h92l324 1404h288l324 -1404h91v-281h-499v281h120l-38 163h-284l-38 -163h119v-281h-499zM534 723h156l-78 336z" />
<glyph unicode="B" horiz-adv-x="1118" d="M131 0v280h109v1124h-109v280h763l224 -224v-535l-83 -83l83 -83v-535l-224 -224h-763zM520 280h318v423h-318v-423zM520 981h318v423h-318v-423z" />
<glyph unicode="C" d="M161 224v1236l224 224h430l224 -224v-277h-280v221h-318v-1124h318v221h280v-277l-224 -224h-430z" />
<glyph unicode="D" horiz-adv-x="1118" d="M131 0v280h109v1124h-109v280h763l224 -224v-1236l-224 -224h-763zM520 280h318v1124h-318v-1124z" />
<glyph unicode="E" horiz-adv-x="1118" d="M131 0v280h109v1124h-109v280h987v-481h-280v201h-318v-340h298v-280h-298v-504h318v322h280v-602h-987z" />
<glyph unicode="F" horiz-adv-x="1118" d="M131 0v280h109v1124h-109v280h987v-481h-280v201h-318v-340h298v-280h-298v-504h110v-280h-499z" />
<glyph unicode="G" horiz-adv-x="1040" d="M161 224v1236l224 224h430l224 -224v-336h-280v280h-318v-1124h318v280h-159v280h439v-616l-224 -224h-430z" />
<glyph unicode="H" horiz-adv-x="1197" d="M131 0v280h109v1124h-109v280h499v-280h-110v-419h317v419h-109v280h499v-280h-110v-1124h110v-280h-499v280h109v424h-317v-424h110v-280h-499z" />
<glyph unicode="I" horiz-adv-x="600" d="M131 0v280h109v1124h-109v280h499v-280h-110v-1124h110v-280h-499z" />
<glyph unicode="J" horiz-adv-x="1081" d="M161 224v338h280v-282h280v1124h-109v280h498v-280h-109v-1180l-224 -224h-392z" />
<glyph unicode="K" horiz-adv-x="1188" d="M131 0v280h109v1124h-109v280h499v-280h-110v-404l262 404h-63v280h499v-280h-100l-365 -562l365 -562h90v-280h-499v280h73l-197 303l-65 -100v-203h110v-280h-499z" />
<glyph unicode="L" horiz-adv-x="1081" d="M131 0v280h109v1124h-109v280h498v-280h-109v-1124h280v321h280v-601h-949z" />
<glyph unicode="M" horiz-adv-x="1704" d="M131 0v280h109v1124h-109v280h389l412 -971l412 971h389v-280h-109v-1124h109v-280h-499v280h110v690l-412 -970l-412 970v-690h110v-280h-499z" />
<glyph unicode="N" horiz-adv-x="1291" d="M131 0v280h109v1124h-109v280h389l412 -971v691h-109v280h499v-280h-110v-1404h-280l-412 970v-690h110v-280h-499z" />
<glyph unicode="O" d="M161 224v1236l224 224h430l224 -224v-1236l-224 -224h-430zM441 280h318v1124h-318v-1124z" />
<glyph unicode="P" horiz-adv-x="1118" d="M131 0v280h109v1124h-109v280h763l224 -224v-635l-225 -225l-373 1v-321h110v-280h-499zM520 881h318v523h-318v-523z" />
<glyph unicode="Q" d="M161 224v1236l224 224h430l224 -224v-1236l-224 -224h-64v-280h-280v280h-86zM441 280h318v1124h-318v-1124z" />
<glyph unicode="R" horiz-adv-x="1119" d="M131 0v280h109v1124h-109v280h763l224 -224v-635l-225 -225h-26l142 -320h109v-280h-290l-267 601h-41v-321h110v-280h-499zM520 881h318v523h-318v-523z" />
<glyph unicode="S" d="M161 224v276h280v-220h318v424h-374l-224 224v532l224 224h430l224 -224v-276h-280v220h-318v-420h370l228 -224v-536l-224 -224h-430z" />
<glyph unicode="T" horiz-adv-x="1147" d="M161 1184v500h980v-500h-280v220h-70v-1124h79v-280h-438v280h79v1124h-70v-220h-280z" />
<glyph unicode="U" horiz-adv-x="1197" d="M131 1404v280h498v-280h-109v-1124h318v1124h-109v280h499v-280h-110v-1180l-224 -224h-430l-224 224v1180h-109z" />
<glyph unicode="V" horiz-adv-x="1141" d="M52 1403v281h499v-281h-119l180 -779l180 779h-120v281h499v-281h-91l-324 -1404h-288l-324 1404h-92z" />
<glyph unicode="W" horiz-adv-x="1790" d="M52 1403v281h499v-281h-119l180 -779l180 779h288l180 -779l180 779h-120v281h499v-281h-90l-325 -1404h-288l-180 779l-180 -779h-288l-324 1404h-92z" />
<glyph unicode="X" horiz-adv-x="1122" d="M52 0v281h109l284 563l-281 559h-112v281h499v-281h-75l125 -249l126 249h-75v281h499v-281h-112l-282 -559l284 -563h110v-281h-499v281h77l-128 253l-127 -253h77v-281h-499z" />
<glyph unicode="Y" horiz-adv-x="1122" d="M52 1403v281h499v-281h-75l125 -249l126 249h-75v281h499v-281h-112l-298 -592v-531h109v-280h-498v280h109v528l-298 595h-111z" />
<glyph unicode="Z" d="M161 0v280l551 1124h-271v-140h-280v420h878v-280l-538 -1124h258v140h280v-420h-878z" />
<glyph unicode="[" horiz-adv-x="752" d="M161 0v1684h590v-280h-310v-1124h310v-280h-590z" />
<glyph unicode="\" horiz-adv-x="1090" d="M52 1684h312l849 -1684h-313z" />
<glyph unicode="]" horiz-adv-x="752" d="M161 0v280h310v1124h-310v280h590v-1684h-590z" />
<glyph unicode="^" horiz-adv-x="1619" d="M140 1064l566 -2l174 539l173 -539l566 2l-458 -332l176 -538l-457 334l-457 -334l176 538zM512 943l228 -165l-87 -267l227 165l227 -165l-88 267l228 165l-281 -1l-86 268l-87 -268z" />
<glyph unicode="_" d="M161 0v280h878v-280h-878z" />
<glyph unicode="`" horiz-adv-x="1172" d="M161 969l387 -1l119 369l119 -369l387 1l-314 -227l121 -368l-313 229l-313 -229l121 368z" />
<glyph unicode="a" horiz-adv-x="1141" d="M82 -1v281h62l324 1404h288l324 -1404h61v-281h-439v281h90l-38 163h-284l-38 -163h89v-281h-439zM534 723h156l-78 336z" />
<glyph unicode="b" horiz-adv-x="1118" d="M161 0v280h79v1124h-79v280h733l224 -224v-535l-83 -83l83 -83v-535l-224 -224h-733zM520 280h318v423h-318v-423zM520 981h318v423h-318v-423z" />
<glyph unicode="c" d="M161 224v1236l224 224h430l224 -224v-277h-280v221h-318v-1124h318v221h280v-277l-224 -224h-430z" />
<glyph unicode="d" horiz-adv-x="1118" d="M161 0v280h79v1124h-79v280h733l224 -224v-1236l-224 -224h-733zM520 280h318v1124h-318v-1124z" />
<glyph unicode="e" horiz-adv-x="1118" d="M161 0v280h79v1124h-79v280h957v-481h-280v201h-318v-340h298v-280h-298v-504h318v322h280v-602h-957z" />
<glyph unicode="f" horiz-adv-x="1118" d="M161 0v280h79v1124h-79v280h957v-481h-280v201h-318v-340h298v-280h-298v-504h80v-280h-439z" />
<glyph unicode="g" horiz-adv-x="1040" d="M161 224v1236l224 224h430l224 -224v-336h-280v280h-318v-1124h318v280h-159v280h439v-616l-224 -224h-430z" />
<glyph unicode="h" horiz-adv-x="1197" d="M161 0v280h79v1124h-79v280h439v-280h-80v-419h317v419h-79v280h439v-280h-80v-1124h80v-280h-439v280h79v424h-317v-424h80v-280h-439z" />
<glyph unicode="i" horiz-adv-x="600" d="M161 0v280h79v1124h-79v280h439v-280h-80v-1124h80v-280h-439z" />
<glyph unicode="j" horiz-adv-x="1081" d="M161 224v338h280v-282h280v1124h-79v280h438v-280h-79v-1180l-224 -224h-392z" />
<glyph unicode="k" horiz-adv-x="1188" d="M161 0v280h79v1124h-79v280h439v-280h-80v-404l262 404h-33v280h439v-280h-70l-365 -562l365 -562h60v-280h-439v280h43l-197 303l-65 -100v-203h80v-280h-439z" />
<glyph unicode="l" horiz-adv-x="1081" d="M161 0v280h79v1124h-79v280h438v-280h-79v-1124h280v321h280v-601h-919z" />
<glyph unicode="m" horiz-adv-x="1704" d="M161 0v280h79v1124h-79v280h359l412 -971l412 971h359v-280h-79v-1124h79v-280h-439v280h80v690l-412 -970l-412 970v-690h80v-280h-439z" />
<glyph unicode="n" horiz-adv-x="1291" d="M161 0v280h79v1124h-79v280h359l412 -971v691h-79v280h439v-280h-80v-1404h-280l-412 970v-690h80v-280h-439z" />
<glyph unicode="o" d="M161 224v1236l224 224h430l224 -224v-1236l-224 -224h-430zM441 280h318v1124h-318v-1124z" />
<glyph unicode="p" horiz-adv-x="1118" d="M161 0v280h79v1124h-79v280h733l224 -224v-635l-225 -225l-373 1v-321h80v-280h-439zM520 881h318v523h-318v-523z" />
<glyph unicode="q" d="M161 224v1236l224 224h430l224 -224v-1236l-224 -224h-64v-280h-280v280h-86zM441 280h318v1124h-318v-1124z" />
<glyph unicode="r" horiz-adv-x="1119" d="M161 0v280h79v1124h-79v280h733l224 -224v-635l-225 -225h-26l142 -320h109v-280h-290l-267 601h-41v-321h80v-280h-439zM520 881h318v523h-318v-523z" />
<glyph unicode="s" d="M161 224v276h280v-220h318v424h-374l-224 224v532l224 224h430l224 -224v-276h-280v220h-318v-420h370l228 -224v-536l-224 -224h-430z" />
<glyph unicode="t" horiz-adv-x="1147" d="M161 1184v500h980v-500h-280v220h-70v-1124h79v-280h-438v280h79v1124h-70v-220h-280z" />
<glyph unicode="u" horiz-adv-x="1197" d="M161 1404v280h438v-280h-79v-1124h318v1124h-79v280h439v-280h-80v-1180l-224 -224h-430l-224 224v1180h-79z" />
<glyph unicode="v" horiz-adv-x="1141" d="M82 1403v281h439v-281h-89l180 -779l180 779h-90v281h439v-281h-61l-324 -1404h-288l-324 1404h-62z" />
<glyph unicode="w" horiz-adv-x="1790" d="M82 1403v281h439v-281h-89l180 -779l180 779h288l180 -779l180 779h-90v281h439v-281h-60l-325 -1404h-288l-180 779l-180 -779h-288l-324 1404h-62z" />
<glyph unicode="x" horiz-adv-x="1122" d="M82 0v281h79l284 563l-281 559h-82v281h439v-281h-45l125 -249l126 249h-45v281h439v-281h-82l-282 -559l284 -563h80v-281h-439v281h47l-128 253l-127 -253h47v-281h-439z" />
<glyph unicode="y" horiz-adv-x="1122" d="M82 1403v281h439v-281h-45l125 -249l126 249h-45v281h439v-281h-82l-298 -592v-531h79v-280h-438v280h79v528l-298 595h-81z" />
<glyph unicode="z" d="M161 0v280l551 1124h-271v-140h-280v420h878v-280l-538 -1124h258v140h280v-420h-878z" />
<glyph unicode="{" horiz-adv-x="752" d="M161 0v1684h590v-280h-310v-1124h310v-280h-590z" />
<glyph unicode="|" horiz-adv-x="441" d="M161 -200v2084h280v-2084h-280z" />
<glyph unicode="}" horiz-adv-x="752" d="M161 0v280h310v1124h-310v280h590v-1684h-590z" />
<glyph unicode="~" horiz-adv-x="2048" />
<glyph unicode="&#xad;" d="M161 702v280h878v-280h-878z" />
<glyph unicode="&#x2000;" horiz-adv-x="982" />
<glyph unicode="&#x2001;" horiz-adv-x="1964" />
<glyph unicode="&#x2002;" horiz-adv-x="982" />
<glyph unicode="&#x2003;" horiz-adv-x="1964" />
<glyph unicode="&#x2004;" horiz-adv-x="654" />
<glyph unicode="&#x2005;" horiz-adv-x="491" />
<glyph unicode="&#x2006;" horiz-adv-x="327" />
<glyph unicode="&#x2007;" horiz-adv-x="327" />
<glyph unicode="&#x2008;" horiz-adv-x="245" />
<glyph unicode="&#x2009;" horiz-adv-x="392" />
<glyph unicode="&#x200a;" horiz-adv-x="109" />
<glyph unicode="&#x2010;" d="M161 702v280h878v-280h-878z" />
<glyph unicode="&#x2011;" d="M161 702v280h878v-280h-878z" />
<glyph unicode="&#x2012;" d="M161 702v280h878v-280h-878z" />
<glyph unicode="&#x2013;" horiz-adv-x="1185" d="M161 702v280h1024v-280h-1024z" />
<glyph unicode="&#x2014;" horiz-adv-x="2209" d="M161 702v280h2048v-280h-2048z" />
<glyph unicode="&#x202f;" horiz-adv-x="392" />
<glyph unicode="&#x205f;" horiz-adv-x="491" />
<glyph unicode="&#xe000;" horiz-adv-x="1685" d="M0 0v1685h1685v-1685h-1685z" />
</font>
</defs>
</svg>
